<?xml version="1.0" standalone="no"?>
<!DOCTYPE svg PUBLIC "-//W3C//DTD SVG 20010904//EN"
 "http://www.w3.org/TR/2001/REC-SVG-20010904/DTD/svg10.dtd">
<svg version="1.0" xmlns="http://www.w3.org/2000/svg"
 width="512.000000pt" height="512.000000pt" viewBox="0 0 512.000000 512.000000"
 preserveAspectRatio="xMidYMid meet">
<metadata>
Created by potrace 1.11, written by Peter Selinger 2001-2013
</metadata>
<g transform="translate(0.000000,512.000000) scale(0.100000,-0.100000)"
fill="#000000" stroke="none">
<path d="M1281 4620 c-5 -12 -7 -469 -2 -565 1 -19 8 -20 99 -20 l97 0 1 100
1 100 89 0 89 0 5 -100 5 -100 95 0 95 0 3 294 c1 172 -2 297 -7 300 -7 5
-151 6 -183 2 -5 -1 -8 -45 -8 -99 l0 -97 -85 0 c-54 0 -88 4 -93 12 -4 6 -6
42 -5 80 3 113 8 108 -98 108 -71 0 -92 -3 -98 -15z"/>
<path d="M1949 4598 c-1 -48 -1 -111 0 -142 1 -22 4 -23 75 -22 41 1 80 -1 88
-4 10 -4 13 -47 13 -200 l0 -195 98 -1 c62 0 97 3 98 10 1 6 2 96 2 200 l2
189 88 1 87 1 0 97 c0 71 -3 98 -12 99 -7 0 -131 2 -276 2 l-262 2 -1 -37z"/>
<path d="M2598 4629 c-8 -5 -14 -350 -9 -564 l1 -31 95 0 95 0 1 25 c1 14 1
79 1 144 0 64 1 117 4 117 2 0 34 -46 70 -102 l66 -101 67 103 66 102 5 -143
5 -144 95 0 95 0 0 299 0 300 -98 0 c-113 1 -101 9 -176 -116 -48 -80 -71
-106 -71 -78 0 6 -18 37 -39 70 -22 32 -42 68 -46 79 -11 36 -33 44 -126 45
-50 1 -95 -2 -101 -5z"/>
<path d="M3370 4632 c-6 -2 -10 -112 -10 -301 l0 -296 234 0 c129 0 237 3 241
7 9 8 9 177 1 186 -3 3 -66 4 -141 3 l-135 -2 -2 202 -3 202 -88 1 c-48 1 -92
0 -97 -2z"/>
<path d="M1022 3772 l-34 -3 6 -62 c3 -34 8 -89 11 -122 3 -33 7 -80 10 -105
2 -25 7 -81 11 -125 4 -44 8 -91 9 -105 1 -14 6 -61 9 -105 4 -44 9 -100 12
-125 4 -43 9 -99 19 -220 2 -30 7 -75 9 -100 5 -41 10 -102 21 -235 2 -27 7
-75 10 -105 5 -51 11 -120 19 -230 5 -54 15 -169 21 -225 2 -22 7 -71 10 -110
3 -38 8 -88 10 -110 2 -22 7 -76 10 -120 3 -44 8 -91 10 -105 2 -14 7 -61 10
-105 4 -44 8 -93 10 -110 2 -16 6 -75 10 -130 4 -55 9 -108 11 -118 1 -9 6
-56 9 -105 4 -48 8 -97 10 -110 2 -12 7 -64 10 -115 4 -50 10 -96 14 -100 7
-7 64 -24 276 -82 48 -13 323 -89 710 -197 192 -53 186 -52 255 -69 42 -11 59
-8 215 36 94 26 224 62 290 81 66 18 217 60 335 93 118 33 273 76 344 95 71
20 132 38 135 41 6 7 8 21 16 114 3 42 7 92 10 111 2 19 7 71 10 115 3 44 7
96 10 115 5 41 13 128 20 220 3 36 7 85 10 110 2 25 7 79 10 120 4 41 8 86 10
100 2 14 7 66 10 115 4 50 8 101 10 115 2 14 7 61 10 105 4 44 8 96 10 115 2
19 6 76 10 125 4 50 9 97 10 105 2 9 6 60 10 115 4 55 9 107 10 116 2 8 6 53
10 100 4 46 8 100 10 119 2 19 7 69 10 110 3 41 8 91 10 110 4 39 12 123 20
215 5 61 11 135 20 238 3 31 7 83 10 115 3 31 7 77 10 102 15 138 16 180 3
180 -396 3 -3073 4 -3096 2z m2523 -662 c-1 -3 -6 -48 -10 -100 -6 -90 -8
-114 -20 -225 -2 -25 -6 -49 -9 -54 -3 -4 -337 -7 -743 -7 -406 1 -743 0 -750
-2 -6 -2 -10 -9 -8 -15 2 -7 6 -48 10 -92 11 -144 17 -216 20 -233 2 -9 4 -27
4 -39 l1 -23 721 0 c396 0 718 -3 716 -7 -3 -5 -8 -46 -11 -93 -4 -47 -9 -101
-11 -120 -2 -19 -7 -73 -10 -120 -4 -47 -8 -96 -10 -110 -2 -14 -6 -61 -10
-105 -3 -44 -7 -96 -10 -115 -4 -33 -7 -67 -20 -235 -3 -38 -8 -86 -10 -105
-3 -19 -8 -71 -11 -115 -3 -44 -7 -81 -8 -83 -2 -1 -182 -52 -402 -113 -393
-109 -400 -111 -449 -98 -45 11 -178 47 -617 171 -142 39 -148 42 -149 67 0
14 -2 42 -4 61 -1 19 -6 71 -9 115 -4 44 -9 98 -11 120 -5 40 -12 121 -21 229
-3 33 -7 63 -10 68 -6 10 -12 9 204 11 96 1 179 -1 185 -5 7 -4 12 -18 13 -30
2 -33 16 -199 19 -228 2 -14 4 -35 4 -46 1 -16 9 -23 29 -27 15 -3 114 -29
220 -58 l192 -52 218 58 c119 32 218 59 219 59 2 1 10 90 19 191 3 44 8 94 10
110 2 17 7 71 10 121 l7 90 -673 0 c-369 -1 -676 2 -682 5 -11 7 -12 17 -23
174 -4 55 -8 102 -10 105 -2 3 -6 48 -10 100 -3 52 -8 109 -10 125 -1 17 -6
64 -9 105 -4 41 -9 95 -11 120 -3 25 -7 74 -10 110 -3 36 -8 85 -10 110 -2 25
-7 81 -11 125 -3 44 -8 87 -9 95 -3 14 105 16 985 16 544 0 987 -3 985 -6z"/>
</g>
</svg>
