<svg width="30" height="30" viewBox="0 0 30 30" fill="none" xmlns="http://www.w3.org/2000/svg">
<path fill-rule="evenodd" clip-rule="evenodd" d="M15 2C15.3806 2 15.7283 2.21607 15.8967 2.55738L19.5268 9.91147L27.6447 11.098C28.0212 11.1531 28.3339 11.4171 28.4513 11.7791C28.5687 12.1411 28.4704 12.5383 28.1978 12.8039L22.3246 18.5244L23.7106 26.606C23.775 26.9811 23.6207 27.3603 23.3128 27.5841C23.0048 27.8078 22.5965 27.8373 22.2596 27.6601L15 23.8424L7.74048 27.6601C7.40356 27.8373 6.99527 27.8078 6.68729 27.5841C6.37932 27.3603 6.22507 26.9811 6.28942 26.606L7.67551 18.5244L1.8023 12.8039C1.52968 12.5383 1.43141 12.1411 1.54878 11.7791C1.66616 11.4171 1.97884 11.1531 2.3554 11.098L10.4733 9.91147L14.1033 2.55738C14.2718 2.21607 14.6194 2 15 2ZM15 5.25925L12.0342 11.2676C11.8887 11.5625 11.6075 11.7669 11.2822 11.8145L4.64844 12.7841L9.44776 17.4586C9.68364 17.6884 9.7913 18.0195 9.73564 18.344L8.60321 24.9467L14.5346 21.8274C14.826 21.6742 15.1741 21.6742 15.4655 21.8274L21.3968 24.9467L20.2644 18.344C20.2088 18.0195 20.3164 17.6884 20.5523 17.4586L25.3516 12.7841L18.7179 11.8145C18.3925 11.7669 18.1114 11.5625 17.9658 11.2676L15 5.25925Z" fill="#1C69FF"/>
</svg>
